# xmcd
#
# Track frame offsets: 
#        150
#        14724
#        27108
#        36798
#        61002
#        75053
#        91991
#        97212
#        114890
#        129063
#        146477
#        164025
#
# Disc length: 2321 seconds
#
# Revision: 0
# Processed by: cddbd v1.5.2PL0 Copyright (c) Steve Scherf et al.
# Submitted via: ExactAudioCopyFreeDBPlugin 1.0
#
DISCID=8b090f0c
DTITLE=Spare Snare - I Love You, I Hate You
DYEAR=2009
DGENRE=Indie
TTITLE0=Tracked
TTITLE1=We Know The Truth
TTITLE2=How Dark
TTITLE3=Qwerty For The Masses
TTITLE4=Bad Day
TTITLE5=Get Out
TTITLE6=Dirty F
TTITLE7=Kicking Up Leaves
TTITLE8=Spot The Difference
TTITLE9=How Do You Control?
TTITLE10=How I Try
TTITLE11=Signs
EXTD=
EXTT0=
EXTT1=
EXTT2=
EXTT3=
EXTT4=
EXTT5=
EXTT6=
EXTT7=
EXTT8=
EXTT9=
EXTT10=
EXTT11=
PLAYORDER=
